# xmcd CD database file
#
# Track frame offsets:
#	150
#	14354
#	34799
#	49307
#	67338
#	82127
#	99899
#	116013
#	137805
#	154143
#	171756
#	191467
#	206057
#	231147
#
# Disc length: 3341 seconds
#
# Revision: 0
# Processed by: cddbd v1.5.2PL0 Copyright (c) Steve Scherf et al.
# Submitted via: CDex 1.51
#
DISCID=c50d0b0e
DTITLE=Fred And The Roaches - C'est la Westend
DYEAR=2006
DGENRE=Blues
TTITLE0=C'est la vie
TTITLE1=Let it bleed
TTITLE2=Third rate romance
TTITLE3=Good golly, Miss Molly
TTITLE4=All along the watchtower
TTITLE5=I'ts all over now, baby blue
TTITLE6=Black limousine
TTITLE7=I can't quit you
TTITLE8=Call me the breeze
TTITLE9=No expectations
TTITLE10=Third rate romance (studio)
TTITLE11=The spider and the fly
TTITLE12=Standing in the doorway
TTITLE13=Bring it on home to me
EXTD=YEAR: 2006
EXTT0=
EXTT1=
EXTT2=
EXTT3=
EXTT4=
EXTT5=
EXTT6=
EXTT7=
EXTT8=
EXTT9=
EXTT10=
EXTT11=
EXTT12=
EXTT13=
PLAYORDER=
